<?xml version="1.0" standalone="no"?>
<!DOCTYPE svg PUBLIC "-//W3C//DTD SVG 20010904//EN"
 "http://www.w3.org/TR/2001/REC-SVG-20010904/DTD/svg10.dtd">
<svg version="1.0" xmlns="http://www.w3.org/2000/svg"
 width="900.000000pt" height="600.000000pt" viewBox="0 0 900.000000 600.000000"
 preserveAspectRatio="xMidYMid meet">
<metadata>
Created by potrace 1.15, written by Peter Selinger 2001-2017
</metadata>
<g transform="translate(0.000000,600.000000) scale(0.100000,-0.100000)"
fill="#000000" stroke="none">
<path d="M0 3375 c0 -1444 2 -2625 4 -2625 17 0 65 24 61 31 -6 9 69 89 83 89
5 0 31 16 58 35 27 19 59 35 72 35 13 0 21 4 18 9 -3 5 7 14 23 21 16 6 31 20
34 30 4 17 2 17 -29 4 -51 -21 -59 -17 -24 12 20 17 29 32 25 42 -7 19 71 102
96 102 9 0 23 7 30 17 13 15 11 16 -13 10 -14 -4 -33 -10 -42 -13 -9 -3 -16
-1 -16 5 0 6 4 11 9 11 6 0 22 11 37 25 15 14 32 25 38 25 6 0 5 4 -2 9 -11 6
-8 13 12 28 14 11 23 23 20 25 -2 3 2 11 11 18 10 8 15 9 15 1 0 -18 24 -13
60 14 39 29 81 36 60 10 -26 -32 -1 -21 120 52 131 79 173 110 164 124 -8 14
-115 4 -158 -14 -48 -21 -66 -21 -66 -1 0 8 4 12 10 9 5 -3 30 6 55 21 33 19
55 25 80 22 24 -3 35 0 35 9 0 7 5 13 10 13 6 0 10 8 10 18 0 9 10 22 22 27
23 11 37 35 19 35 -6 0 -19 -8 -29 -18 -9 -9 -30 -25 -45 -35 -22 -14 -30 -15
-47 -5 -22 14 -25 24 -9 33 6 4 8 13 5 21 -3 7 2 18 12 23 15 9 15 11 -7 30
-13 12 -29 21 -34 21 -6 0 -2 9 8 20 10 11 24 20 32 20 8 0 13 8 11 17 -2 11
6 19 22 23 16 4 24 12 22 23 -2 13 5 17 28 17 35 0 41 17 8 22 -22 4 -22 5 5
18 19 9 31 10 35 3 6 -9 146 -1 178 11 18 7 37 -11 31 -27 -4 -12 -18 -15 -51
-13 -32 3 -46 0 -46 -9 0 -15 22 -25 56 -25 13 0 24 -4 24 -10 0 -5 -11 -10
-25 -10 -29 0 -91 -35 -77 -44 5 -3 18 4 30 14 12 11 29 20 38 20 14 0 15 -2
3 -17 -13 -15 -11 -16 14 -9 18 4 26 3 23 -3 -3 -5 -1 -11 6 -13 18 -6 0 -28
-23 -28 -11 0 -17 4 -14 10 4 6 -1 7 -11 3 -11 -4 -13 -8 -6 -11 19 -6 14 -18
-15 -32 l-28 -13 25 -7 25 -7 -27 -13 c-38 -18 -35 -32 5 -25 23 5 37 2 46 -8
9 -12 9 -17 0 -22 -6 -4 -15 -2 -19 5 -6 9 -13 7 -28 -8 -11 -11 -23 -18 -25
-15 -8 7 -47 -21 -47 -34 0 -7 -18 -22 -39 -35 -21 -12 -44 -31 -51 -41 -10
-17 -9 -18 12 -12 13 4 51 20 86 37 34 16 67 26 72 23 6 -3 13 1 16 9 3 9 10
13 15 10 6 -3 17 0 26 8 14 11 16 11 8 -2 -11 -17 -15 -40 -8 -40 10 0 49 24
70 43 13 11 26 17 30 13 4 -3 -3 -14 -16 -22 -15 -11 -19 -19 -12 -28 11 -13
3 -55 -13 -71 -6 -6 -29 -19 -51 -29 -22 -10 -48 -25 -58 -34 -15 -14 -17 -14
-17 0 0 9 -10 18 -23 22 -37 10 -50 7 -43 -9 3 -9 0 -15 -10 -15 -8 0 -13 4
-10 9 4 5 0 11 -6 14 -10 3 -10 7 0 20 11 13 10 16 -10 19 -26 4 -128 -59
-128 -79 0 -16 0 -16 46 3 l39 16 -23 -24 c-12 -14 -19 -28 -15 -31 3 -4 -5
-7 -19 -7 -15 0 -28 4 -30 10 -1 5 -18 0 -36 -12 -29 -18 -31 -22 -16 -32 14
-11 10 -15 -26 -31 -48 -22 -56 -31 -41 -49 9 -10 8 -17 -1 -27 -7 -8 -20 -23
-28 -33 -14 -18 -13 -18 10 -11 14 4 33 18 44 31 14 19 73 54 91 54 9 0 -3
-43 -15 -50 -27 -17 -1 -22 31 -6 48 24 54 20 25 -18 -14 -19 -22 -36 -18 -39
4 -2 2 -3 -4 -1 -6 1 -16 -2 -22 -8 -5 -5 -26 -13 -47 -18 l-37 -8 26 27 c33
34 33 41 1 41 -15 0 -36 -11 -50 -26 -14 -15 -25 -24 -25 -20 0 4 -14 -1 -30
-11 -35 -20 -40 -38 -9 -28 15 5 19 4 15 -4 -5 -7 2 -11 18 -11 28 0 43 -17
28 -32 -7 -7 -18 -5 -33 6 -31 22 -56 20 -69 -4 -10 -18 -8 -20 26 -20 37 0
37 0 18 -21 -24 -27 -53 -42 -84 -44 -14 -1 -42 -6 -62 -10 -27 -5 -38 -4 -38
5 0 6 9 14 20 17 23 6 26 19 8 26 -10 3 -10 9 0 27 16 27 10 35 -16 21 -26
-14 -43 -14 -19 0 10 6 22 21 27 34 5 13 28 34 50 45 22 11 48 27 58 35 9 8
26 21 37 29 20 15 20 15 -1 16 -12 0 -24 -7 -28 -15 -4 -11 -18 -14 -49 -13
-24 2 -50 -2 -58 -8 -8 -6 -39 -19 -69 -29 -30 -10 -50 -20 -44 -22 6 -2 35 5
63 17 l52 20 -12 -23 c-6 -12 -23 -34 -38 -49 -14 -14 -26 -30 -26 -35 -1 -4
-6 -18 -13 -31 -9 -15 -9 -22 -2 -22 6 0 9 -4 5 -10 -3 -5 -11 -7 -18 -5 -17
7 -41 -11 -33 -24 4 -6 26 -11 49 -11 39 -1 41 -2 23 -15 -18 -14 -69 -15 -82
-2 -12 12 -43 -13 -37 -29 3 -8 -3 -24 -13 -35 -18 -20 -18 -20 11 -14 17 4
38 9 48 12 18 5 18 3 2 -27 -21 -41 -8 -59 30 -42 14 6 25 17 26 24 0 7 19 27
43 44 36 26 44 29 55 16 11 -11 11 -16 1 -22 -14 -8 -10 -41 5 -42 6 0 14 9
20 21 11 23 25 28 25 9 1 -7 10 -2 21 11 31 38 35 15 3 -26 -34 -46 -43 -53
-60 -46 -8 3 -25 -13 -41 -40 -17 -27 -37 -47 -51 -50 -39 -8 -37 20 7 72 40
48 50 71 32 71 -15 0 -69 -61 -84 -92 -6 -16 -18 -28 -25 -28 -9 0 -10 5 -2
19 15 29 13 32 -17 25 -43 -10 -73 -32 -67 -49 4 -10 -5 -21 -25 -32 -17 -10
-31 -25 -31 -33 0 -8 -11 -22 -24 -30 -79 -51 -121 -82 -129 -96 -13 -24 -1
-28 19 -6 22 22 108 72 123 72 16 0 14 -30 -2 -36 -33 -12 -173 -164 -152
-164 3 0 40 29 83 65 86 73 110 67 47 -10 -40 -48 -40 -50 0 -35 24 9 24 7
-13 -43 -28 -36 -43 -71 -52 -115 -7 -34 -17 -65 -21 -68 -12 -7 -11 -24 1
-24 6 0 10 6 10 14 0 7 9 25 21 40 13 17 19 35 16 48 -4 15 2 29 21 47 36 35
62 76 62 99 0 11 7 25 15 32 8 7 27 34 42 61 14 27 30 49 35 49 11 0 10 -47
-1 -52 -5 -2 -12 -19 -16 -38 l-7 -35 21 19 21 19 1 -39 c1 -21 3 -31 6 -21 2
9 9 17 14 17 6 0 7 -9 4 -21 -5 -15 -4 -19 5 -14 7 4 9 17 5 32 -4 18 -2 23 6
17 8 -4 9 -3 5 4 -4 6 3 21 16 34 30 30 33 11 9 -63 -12 -34 -21 -76 -21 -93
0 -26 -4 -31 -25 -31 -29 0 -30 6 -9 46 8 17 13 33 10 36 -10 10 -48 -41 -67
-89 -13 -33 -59 -67 -59 -44 0 8 4 18 10 21 17 10 12 45 -5 39 -8 -4 -15 -16
-15 -28 0 -15 -10 -28 -27 -37 -31 -15 -62 -48 -62 -64 0 -5 6 -1 14 9 25 34
30 8 6 -35 -13 -22 -21 -42 -18 -45 7 -7 57 70 57 88 0 16 28 33 39 23 3 -3 0
-15 -7 -25 -8 -13 -8 -20 -2 -20 6 0 13 8 17 18 3 9 21 34 40 55 25 28 33 33
33 19 0 -26 11 -34 26 -21 11 9 16 6 23 -12 l9 -24 10 25 c5 14 18 45 27 70
10 25 25 52 33 60 13 13 14 12 8 -10 -28 -102 -40 -184 -28 -187 7 -3 12 -24
12 -59 0 -46 3 -54 19 -54 15 0 19 10 24 61 3 33 12 68 20 77 9 10 18 46 22
85 6 67 21 124 30 115 3 -3 6 -53 6 -112 0 -59 3 -114 6 -122 8 -21 22 -17 35
11 11 24 12 24 24 6 10 -14 11 -26 2 -54 -6 -19 -8 -42 -5 -51 9 -22 54 -20
84 4 33 25 53 25 53 0 0 -17 7 -20 46 -20 l47 0 -7 42 c-4 24 -16 53 -27 65
-16 16 -19 29 -14 52 4 19 1 43 -8 63 -8 18 -15 40 -15 48 -1 8 -4 42 -8 75
l-7 59 35 -34 c34 -34 65 -88 69 -120 3 -30 -13 -61 -29 -55 -13 5 -13 3 -1
-12 7 -10 20 -24 28 -30 17 -15 18 -116 1 -121 -8 -3 -7 -8 1 -18 8 -10 35
-14 91 -14 77 0 79 1 73 21 -4 12 -20 42 -36 67 -15 24 -31 57 -34 72 -3 15
-16 33 -29 40 -23 12 -26 19 -43 129 -7 43 16 39 31 -6 6 -18 14 -35 18 -39
11 -11 9 48 -2 66 -6 9 -5 19 3 28 9 11 6 13 -13 10 -18 -2 -24 1 -21 12 2 8
3 28 3 43 -1 24 2 26 14 16 8 -6 14 -20 14 -31 0 -10 4 -17 10 -13 5 3 16 -5
25 -19 10 -14 22 -23 31 -19 9 3 14 -1 14 -12 0 -9 -4 -13 -10 -10 -14 9 -13
-11 2 -35 11 -16 9 -22 -6 -33 -13 -10 -15 -16 -8 -21 7 -4 13 -22 13 -39 1
-24 3 -26 6 -9 5 26 23 30 23 5 0 -10 7 -31 15 -47 19 -37 19 -39 -5 -33 -26
7 -27 -23 -1 -47 11 -10 16 -26 14 -39 -6 -31 18 -60 46 -55 l23 3 -23 30
c-13 16 -18 26 -12 22 21 -13 25 14 5 36 -23 26 -25 114 -2 109 8 -2 11 4 7
18 -11 41 16 14 37 -38 23 -58 30 -63 40 -29 6 19 9 16 20 -23 6 -25 20 -64
31 -87 l19 -43 98 0 c98 0 99 0 87 22 l-12 21 29 -22 c38 -30 42 -12 9 45 -15
25 -24 48 -20 52 3 4 11 0 16 -8 8 -11 9 -9 4 10 -4 14 -13 30 -21 36 -18 15
-18 24 1 24 21 0 19 8 -15 75 -50 97 -32 89 20 -10 18 -33 39 -67 47 -75 14
-13 15 -12 9 15 -3 17 -11 70 -17 120 -6 50 -15 97 -20 105 -11 18 -14 26 -28
70 l-10 35 6 -35 5 -35 -21 19 c-14 13 -19 26 -15 41 4 15 -3 32 -20 52 -27
32 -34 85 -16 113 7 11 10 6 10 -22 0 -38 27 -108 42 -108 4 0 8 11 8 25 0 27
18 34 25 10 3 -8 8 -23 12 -32 3 -10 5 -22 4 -27 -3 -15 32 -82 37 -68 2 7 -1
19 -8 27 -13 15 -4 39 11 30 5 -4 9 1 9 10 0 8 -7 18 -15 21 -9 4 -15 19 -15
35 0 19 -5 29 -15 29 -23 0 -20 91 4 118 25 30 32 28 25 -8 -4 -16 -3 -58 0
-93 6 -50 13 -71 34 -94 36 -38 106 -206 97 -232 -4 -14 3 -26 30 -46 19 -15
35 -34 35 -42 0 -8 4 -12 10 -8 5 3 7 12 3 20 -3 8 -1 15 5 15 13 0 30 -43 42
-108 11 -59 35 -111 26 -57 -14 90 -35 166 -50 190 -17 25 -17 26 1 17 29 -16
49 -43 79 -107 16 -33 37 -69 47 -80 11 -11 26 -35 33 -52 11 -25 21 -33 39
-33 23 0 25 2 14 22 -6 13 -21 31 -33 41 -19 17 -19 18 -2 13 11 -4 23 -1 27
6 6 9 10 7 14 -7 22 -67 28 -75 52 -75 l24 0 -21 30 c-12 16 -18 35 -15 40 4
6 1 17 -5 25 -8 9 -8 15 -2 15 5 0 26 -23 46 -50 42 -58 50 -63 102 -58 l38 3
-32 34 c-26 29 -33 32 -46 21 -14 -10 -16 -9 -16 7 0 11 -12 38 -26 59 -15 21
-42 68 -60 104 -20 41 -53 84 -88 117 -31 28 -56 56 -56 61 0 5 -6 12 -14 15
-10 4 -15 21 -14 54 0 50 -30 141 -31 96 -1 -27 -20 -31 -22 -5 -7 71 -3 120
8 111 15 -13 63 -115 63 -137 1 -21 20 -46 41 -54 9 -4 23 -20 30 -37 7 -16
23 -32 35 -35 12 -3 24 -13 28 -21 9 -26 88 -125 98 -125 6 0 7 8 3 18 -4 9
-10 28 -13 42 l-5 25 20 -25 c11 -14 29 -40 39 -59 46 -82 44 -79 44 -43 0 37
10 41 28 12 7 -12 16 -18 21 -16 4 3 14 -14 20 -37 16 -54 46 -85 87 -93 21
-4 31 -11 28 -19 -3 -7 9 -26 26 -44 l32 -31 180 0 c159 0 179 2 168 15 -10
13 -9 15 8 15 12 0 25 -7 30 -15 7 -13 25 -15 93 -13 l84 3 -35 17 c-39 19
-86 65 -76 75 3 4 16 -3 29 -15 35 -33 47 -29 34 13 -11 37 -31 44 -68 24 -16
-8 -26 -5 -49 13 -16 13 -43 33 -60 46 -29 23 -40 52 -20 52 5 0 18 -10 30
-22 22 -24 41 -18 20 7 -10 12 -10 15 3 15 9 0 24 -10 34 -23 17 -22 70 -47
99 -47 7 0 16 9 19 20 6 18 11 15 46 -27 42 -51 47 -63 25 -63 -12 0 -12 -7
-1 -42 12 -41 14 -43 55 -46 37 -3 42 -1 36 14 -7 18 -9 18 78 -5 21 -5 144
-10 273 -10 206 0 234 1 223 14 -17 21 6 20 26 0 20 -20 48 -20 40 0 -7 19 8
19 24 0 17 -20 60 -20 60 1 0 8 -5 25 -11 37 -9 19 -7 18 10 -3 11 -14 21 -31
21 -38 0 -9 18 -12 65 -11 35 1 62 6 59 10 -3 5 -12 9 -20 9 -8 0 -14 7 -14
16 0 11 6 15 20 11 12 -3 20 0 20 8 0 7 7 15 15 19 12 4 13 11 5 32 -6 15 -9
28 -7 30 6 6 48 -43 51 -59 1 -8 8 -22 15 -31 7 -9 11 -23 7 -31 -4 -13 8 -15
76 -15 64 0 79 3 70 12 -7 7 -12 21 -12 31 0 17 5 19 35 14 19 -3 35 -2 35 2
0 4 -16 26 -35 48 -19 22 -31 43 -28 47 6 6 0 8 -51 11 -27 2 -82 52 -71 64 3
2 -13 15 -35 28 -38 23 -52 43 -29 43 6 0 8 8 5 18 -3 9 -1 24 4 32 8 12 15
11 55 -8 56 -27 58 -27 50 -2 -6 18 -3 20 21 14 19 -5 25 -4 20 5 -4 6 -16 11
-26 11 -20 0 -52 40 -57 69 -1 8 -11 22 -21 31 -20 15 -42 51 -42 68 0 6 11
13 25 16 24 6 36 36 15 36 -5 0 -10 5 -10 11 0 7 9 9 24 5 15 -4 26 -1 29 7 3
7 6 5 6 -5 1 -10 7 -15 14 -12 8 3 19 -7 26 -22 6 -15 23 -35 36 -46 14 -11
25 -25 25 -32 0 -6 14 -20 30 -29 29 -18 30 -18 30 3 0 17 4 20 20 15 24 -7
26 7 5 25 -21 18 -19 33 4 27 35 -9 31 21 -7 52 -24 19 -31 30 -21 31 9 0 24
-9 34 -20 10 -11 26 -20 35 -20 10 0 34 -11 55 -25 59 -41 61 -24 4 33 -33 33
-58 51 -67 47 -8 -3 -25 1 -38 10 -19 12 -28 13 -43 3 -15 -9 -24 -8 -48 7
-15 10 -47 20 -71 21 -23 2 -49 10 -57 18 -9 8 -37 18 -63 22 -55 8 -72 19
-72 46 0 17 4 19 28 13 15 -3 37 -8 50 -9 12 -1 32 -12 45 -23 38 -34 51 -38
32 -9 -23 34 -14 42 30 29 52 -16 52 1 0 37 -33 23 -49 29 -58 21 -8 -6 -18
-6 -27 -1 -10 6 -20 4 -31 -6 -14 -12 -19 -13 -25 -2 -8 11 -14 58 -8 58 2 0
15 -5 29 -10 23 -9 26 -8 21 5 -7 20 32 20 62 -1 20 -14 22 -14 22 0 0 9 -5
16 -11 16 -5 0 -7 4 -4 10 12 19 51 10 111 -26 32 -19 63 -40 69 -45 13 -13
-15 -31 -30 -20 -5 5 -17 8 -25 8 -8 1 -24 4 -35 8 -16 5 -15 3 5 -14 14 -11
31 -21 38 -21 6 0 12 -3 12 -7 0 -5 14 -8 30 -8 17 0 30 3 30 8 0 4 9 7 20 7
27 0 25 7 -10 37 -38 32 -39 47 0 40 23 -5 28 -3 23 8 -3 8 -8 15 -12 15 -4 0
-13 11 -19 25 -9 20 -9 25 1 25 7 0 18 -5 25 -12 6 -6 14 -9 17 -6 4 3 -8 16
-24 28 -17 12 -31 17 -31 11 0 -5 -24 6 -52 25 -29 19 -58 34 -64 34 -6 0 -17
7 -24 15 -10 13 -9 15 11 15 27 -1 106 -17 129 -27 8 -4 37 -11 63 -17 27 -6
47 -15 45 -21 -1 -5 -8 -9 -15 -7 -7 2 -13 -2 -13 -7 0 -11 68 -27 77 -18 9
10 -60 77 -79 77 -10 0 -25 11 -34 24 -8 14 -23 27 -32 29 -9 3 -4 5 11 6 16
0 37 -4 47 -9 22 -12 36 3 17 18 -6 6 -23 12 -37 14 -15 2 -26 11 -28 22 -2
11 -14 28 -26 38 -18 15 -19 19 -6 28 22 14 28 12 35 -10 8 -26 62 -56 62 -35
0 8 -5 13 -10 12 -6 -1 -17 11 -25 26 -10 22 -11 31 -2 42 6 8 9 18 6 23 -3 6
1 15 9 22 11 9 20 8 45 -6 16 -10 30 -21 30 -24 0 -4 32 -21 71 -40 47 -22 67
-36 60 -43 -16 -16 28 -44 72 -45 32 -1 37 2 37 21 0 17 -10 28 -37 41 -24 11
-33 20 -25 25 18 11 -23 53 -78 82 l-45 24 45 6 c25 3 40 7 33 7 -24 4 -157
71 -140 71 9 1 17 4 17 9 -1 15 -49 52 -69 52 -22 0 -46 34 -37 55 4 11 12 11
38 3 92 -31 138 -53 134 -64 -3 -7 2 -15 11 -18 14 -6 14 -8 -2 -20 -17 -12
-16 -16 25 -45 46 -33 69 -35 29 -2 l-24 20 25 1 c24 1 24 1 6 15 -19 14 -18
15 12 15 50 0 39 26 -23 56 -30 15 -55 33 -55 40 0 7 -13 23 -30 37 -16 14
-31 31 -32 38 -4 19 -43 49 -62 49 -9 0 -19 6 -22 14 -3 8 -17 17 -30 20 -14
4 -22 11 -19 16 3 5 1 17 -4 27 -5 10 -12 26 -15 35 -3 11 -12 15 -24 11 -16
-4 -19 -1 -15 21 4 20 2 25 -9 21 -9 -4 -14 3 -16 21 -2 28 -18 54 -33 54 -5
0 -9 -5 -9 -11 0 -7 -8 -17 -17 -24 -15 -11 -16 -15 -3 -30 14 -16 13 -17 -8
-11 -30 10 -29 -12 3 -46 14 -15 23 -33 20 -40 -8 -22 22 -48 109 -93 48 -24
58 -45 22 -45 -13 0 -28 5 -31 10 -3 6 -15 10 -25 10 -11 0 -24 9 -30 20 -10
19 -31 28 -29 13 4 -25 -2 -35 -18 -29 -16 6 -16 6 0 -12 22 -24 21 -32 -2
-32 -36 0 -42 -23 -15 -63 31 -47 17 -48 -22 -2 -16 19 -33 35 -37 35 -5 0
-27 21 -50 46 -23 25 -61 57 -84 71 -23 13 -45 33 -48 43 -3 11 -12 17 -20 14
-7 -3 -16 -1 -20 5 -3 6 -2 11 4 11 5 0 3 13 -5 30 -19 37 -29 38 -30 5 -1
-14 2 -25 6 -25 5 0 6 -9 3 -20 -3 -13 2 -30 14 -43 11 -12 23 -35 27 -51 8
-32 69 -94 101 -102 15 -4 21 -14 22 -43 2 -34 0 -38 -17 -34 -14 4 -20 0 -20
-11 0 -9 -4 -16 -9 -16 -11 0 -37 31 -33 39 2 3 -1 7 -7 9 -6 2 -8 -3 -5 -12
8 -21 -10 -21 -30 0 -9 8 -16 13 -16 10 0 -3 -11 -1 -25 4 -28 11 -33 -1 -10
-20 8 -7 15 -21 15 -32 0 -28 41 -98 57 -98 7 0 13 -5 13 -11 0 -6 8 -8 18 -5
20 7 61 -29 49 -41 -15 -14 -68 -6 -82 13 -9 12 -14 14 -15 6 0 -21 -15 -6
-39 40 -12 24 -34 57 -48 73 -22 26 -24 27 -20 8 4 -17 1 -20 -12 -15 -9 3
-19 9 -22 14 -3 5 -13 6 -21 3 -14 -6 -13 -11 8 -42 33 -49 30 -57 -8 -22 -18
16 -39 27 -46 24 -7 -3 -11 -1 -7 4 3 5 -8 21 -23 36 -28 26 -37 32 -109 72
-35 19 -71 57 -97 101 -5 7 15 2 43 -12 59 -30 74 -33 46 -8 -11 10 -31 31
-45 46 l-25 28 43 -21 c38 -19 45 -20 63 -7 20 14 20 15 -17 55 -20 23 -29 39
-20 35 9 -3 16 -10 16 -14 0 -4 12 -11 27 -15 15 -3 48 -24 74 -46 26 -21 63
-46 83 -54 34 -15 36 -14 36 5 0 10 -11 40 -25 65 -27 47 -21 60 10 25 19 -21
45 -27 45 -11 0 21 -13 41 -27 41 -8 0 -20 15 -28 34 -20 48 -108 131 -166
157 -48 22 -68 46 -29 36 24 -6 25 -3 3 30 l-17 26 30 -16 c16 -8 38 -24 49
-34 43 -39 106 -85 111 -80 8 7 -67 77 -83 77 -13 0 -18 22 -7 33 3 3 29 -10
57 -29 27 -19 52 -32 55 -29 4 3 -19 31 -51 62 -51 51 -63 73 -36 73 5 0 19
-9 31 -20 23 -21 48 -27 48 -10 0 6 -6 10 -12 10 -16 0 -78 57 -78 72 0 7 6 6
15 -2 17 -14 31 -8 20 9 -3 6 -16 11 -27 11 -12 0 -30 7 -40 17 -22 20 -23 8
-3 -31 9 -16 13 -31 10 -34 -8 -9 -33 18 -39 43 -4 15 -13 23 -25 22 -12 -1
-17 -7 -13 -19 3 -14 -1 -18 -19 -17 -17 1 -19 3 -6 6 18 5 24 23 7 23 -5 0
-9 3 -8 8 1 4 -7 22 -18 39 -15 24 -23 30 -32 21 -9 -9 -18 2 -37 43 -13 30
-25 65 -25 78 0 20 4 22 26 17 24 -6 25 -5 22 31 -2 31 -7 38 -23 36 -15 -1
-24 7 -32 27 -8 20 -16 28 -26 24 -18 -7 -34 46 -17 56 9 5 9 9 1 14 -6 4 -11
25 -11 47 0 21 -4 39 -9 39 -5 0 -12 7 -15 15 -5 15 -2 24 26 78 6 12 15 40
18 62 4 22 11 48 14 57 6 13 3 16 -16 12 -22 -5 -22 -5 -4 10 11 9 21 22 22
30 1 7 5 23 9 35 4 14 1 23 -9 27 -9 3 -16 12 -16 20 0 8 -4 14 -9 14 -18 0
13 58 39 74 42 24 54 131 13 107 -19 -10 -42 10 -61 53 -18 41 -25 26 -12 -25
13 -48 6 -101 -15 -119 -13 -11 -15 -7 -15 24 0 26 -8 45 -27 65 -16 16 -41
45 -58 65 -30 36 -52 48 -42 23 3 -8 1 -20 -4 -28 -8 -12 -10 -12 -19 1 -6 8
-13 26 -17 39 -3 14 -18 35 -32 47 -14 13 -21 24 -14 24 6 0 9 8 6 18 -3 14 1
18 16 17 23 -1 63 -47 58 -67 -2 -7 -2 -10 0 -5 3 4 13 7 24 7 13 0 19 7 19
23 0 22 -29 73 -30 51 0 -5 5 -15 11 -21 6 -6 8 -16 4 -23 -9 -15 -35 6 -35
30 0 25 -25 43 -50 35 -14 -5 -20 -2 -20 9 0 9 -8 16 -19 16 -11 0 -21 9 -24
22 -7 27 -1 36 15 20 7 -7 20 -12 30 -12 11 0 28 -9 40 -20 12 -11 33 -20 47
-20 14 0 21 4 15 8 -5 4 -15 23 -20 42 -6 20 -16 34 -24 32 -7 -2 -19 7 -27
18 -11 15 -19 18 -26 11 -11 -11 -87 22 -87 39 0 13 1 13 36 -4 16 -8 44 -17
62 -19 39 -6 60 -22 75 -57 l11 -25 4 33 c2 22 -3 41 -14 53 -21 23 -12 24 22
3 32 -21 40 -13 24 25 -16 38 -40 61 -40 37 0 -14 -4 -14 -22 -5 -60 31 -61
32 -55 16 7 -18 -17 -42 -33 -32 -6 3 -8 11 -5 16 4 5 -5 9 -19 9 -14 0 -27 4
-31 9 -9 15 -63 10 -69 -6 -3 -8 -11 -11 -16 -8 -8 5 -7 11 0 20 14 17 5 35
-18 35 -13 0 -14 2 -3 13 10 10 14 9 22 -5 11 -19 39 -25 39 -8 0 6 12 10 26
10 21 0 25 -4 21 -20 -4 -15 0 -20 14 -20 11 0 19 7 19 16 0 8 5 12 10 9 6 -4
18 -1 27 6 13 11 17 10 28 -4 14 -20 55 -23 55 -4 0 6 -7 30 -14 52 -14 40
-36 59 -36 31 0 -19 -9 -20 -32 -2 -22 16 -23 26 -2 26 9 0 14 6 11 13 -2 6
-11 11 -21 9 -9 -2 -16 2 -16 8 0 14 43 13 58 -2 10 -10 15 -10 22 2 10 16 10
16 14 -18 3 -29 26 -54 26 -29 0 20 11 22 28 5 9 -9 13 -7 18 6 8 21 -11 37
-88 74 -32 15 -58 30 -58 35 0 12 23 8 41 -9 18 -16 49 -13 49 5 0 13 -63 52
-70 42 -3 -4 -14 -8 -25 -8 -11 -1 -31 -4 -45 -7 -14 -3 -18 -3 -10 0 8 4 23
16 34 26 12 10 22 15 24 9 2 -5 12 -6 24 -3 13 3 26 -1 33 -12 11 -15 14 -15
28 -2 8 9 13 24 10 34 -3 15 1 18 19 17 13 -1 29 2 36 8 7 5 15 7 18 4 10 -10
-6 -27 -27 -27 -25 0 -24 -15 2 -48 l20 -27 -20 -9 c-31 -13 -28 -45 3 -39 16
3 23 10 19 19 -7 18 2 18 35 -3 17 -10 22 -11 15 -3 -19 21 -16 32 10 30 53
-5 63 8 24 29 -16 9 -30 9 -50 2 -22 -9 -27 -8 -27 6 0 17 44 63 61 63 5 0 18
-9 29 -20 24 -24 29 -25 26 -5 -2 17 -72 105 -93 118 -15 9 -18 37 -4 37 5 0
16 -10 24 -22 16 -23 16 -23 16 -2 1 11 12 27 26 34 14 7 25 17 25 22 0 13 -9
10 -32 -12 -27 -25 -26 -25 -68 9 -29 25 -32 31 -21 45 7 9 20 16 27 16 8 0
14 5 14 10 0 18 -58 11 -69 -7 -9 -17 -12 -17 -38 -2 -31 17 -63 15 -63 -6 0
-23 -20 -28 -41 -9 -10 9 -20 15 -22 13 -1 -2 -12 -18 -25 -36 -12 -18 -22
-37 -22 -43 0 -5 -5 -10 -11 -10 -6 0 -8 7 -5 17 9 22 -11 33 -54 32 l-35 -1
33 -11 c59 -19 28 -36 -68 -38 -21 -1 -27 -3 -15 -6 11 -3 23 -11 28 -19 4 -7
14 -11 22 -8 8 3 20 2 27 -3 8 -5 -2 -10 -31 -13 -50 -6 -69 -30 -24 -31 25 0
26 -1 8 -9 -34 -15 -68 -12 -61 5 3 8 1 15 -5 15 -6 0 -9 -8 -8 -17 4 -40 -2
-53 -26 -59 -16 -4 -25 -13 -25 -25 0 -20 15 -26 25 -10 6 11 45 10 45 0 0 -4
-15 -11 -32 -15 -18 -4 -36 -9 -40 -10 -5 -1 -15 -2 -23 -3 -8 0 -15 -6 -15
-12 0 -5 4 -8 9 -5 5 3 21 0 35 -8 23 -11 24 -15 10 -20 -10 -4 -21 -3 -26 2
-6 6 -23 5 -44 -1 -25 -8 -34 -16 -34 -32 0 -12 -9 -30 -20 -40 -11 -10 -20
-27 -20 -39 0 -15 -3 -17 -12 -8 -17 17 -28 15 -28 -7 0 -11 9 -22 19 -26 10
-3 21 -15 24 -25 3 -11 12 -20 21 -20 18 0 21 15 6 25 -7 4 -7 12 0 25 5 10 7
26 4 34 -3 9 -1 16 5 16 6 0 11 -16 11 -35 0 -19 5 -35 11 -35 7 0 9 -9 5 -22
-4 -13 -8 -27 -9 -33 -2 -5 -6 -16 -10 -22 -5 -7 -6 -13 -2 -13 3 0 -2 -15
-12 -32 -10 -18 -20 -44 -23 -58 -3 -16 -13 -26 -28 -28 -12 -2 -22 -7 -22
-12 0 -5 -11 -21 -25 -36 -28 -30 -29 -33 -15 -68 6 -16 6 -27 0 -31 -6 -4
-10 5 -10 19 0 26 -23 36 -35 16 -3 -5 -19 -10 -36 -10 -29 0 -31 3 -33 55 -1
13 -8 20 -21 20 -12 0 -25 11 -32 28 -12 27 -36 36 -48 17 -3 -6 1 -13 9 -16
8 -3 25 -24 36 -47 12 -23 29 -46 38 -53 10 -7 13 -18 8 -30 -6 -14 -9 -16
-15 -5 -5 7 -14 10 -21 6 -6 -4 -22 3 -35 15 l-24 23 4 -48 c3 -26 8 -52 11
-58 4 -7 -10 7 -30 31 -54 60 -98 58 -69 -4 21 -43 8 -58 -19 -21 -11 15 -23
27 -28 27 -14 0 -17 -35 -3 -48 7 -7 13 -25 14 -40 0 -15 2 -63 3 -107 2 -44
6 -88 10 -97 12 -28 -9 -21 -43 13 -36 36 -39 49 -10 42 20 -6 20 -5 5 32 -9
21 -14 46 -11 56 4 10 -4 28 -21 46 -27 29 -27 29 -2 -40 8 -20 7 -32 -1 -40
-8 -8 -11 -8 -11 1 0 7 -13 26 -30 43 -29 31 -50 83 -50 127 0 17 -6 22 -25
22 -31 0 -31 -6 1 -53 14 -21 24 -46 22 -55 -2 -9 6 -34 19 -54 13 -21 21 -38
17 -38 -9 0 -34 28 -34 38 0 8 -42 42 -53 42 -8 0 -2 -76 7 -86 6 -5 30 -21
54 -34 23 -13 42 -27 42 -31 0 -4 9 -9 20 -12 13 -3 20 -13 19 -29 0 -12 -3
-17 -6 -10 -2 6 -11 12 -19 12 -10 0 -12 -5 -7 -12 4 -7 6 -21 4 -31 -2 -15 2
-17 18 -12 28 9 26 1 -9 -35 -17 -17 -30 -35 -30 -39 0 -5 -16 -22 -36 -38
-29 -23 -35 -34 -30 -51 7 -21 8 -21 36 8 16 17 34 30 39 30 13 0 32 35 24 44
-3 3 -2 6 4 6 6 0 14 11 17 25 4 14 11 25 16 25 5 0 7 -7 3 -16 -5 -13 -2 -15
13 -10 10 3 26 1 34 -4 22 -13 0 -31 -39 -32 -22 -1 -30 -5 -27 -15 3 -7 1
-13 -5 -13 -6 0 -9 -7 -5 -15 3 -8 -3 -20 -13 -27 -10 -7 -26 -29 -36 -48 -19
-38 -34 -52 -48 -43 -4 3 -16 -1 -25 -9 -9 -8 -30 -22 -45 -32 -29 -18 -29
-18 -22 5 7 20 3 19 -39 -11 -25 -18 -49 -31 -52 -28 -3 4 22 35 55 69 33 35
58 65 56 67 -6 6 -85 -60 -85 -71 0 -6 -3 -8 -6 -4 -7 7 -34 -17 -34 -31 0
-17 -37 -43 -52 -37 -9 4 -22 -1 -31 -9 -19 -19 -34 -21 -18 -3 6 8 8 16 6 19
-3 3 10 17 30 32 19 15 35 34 35 42 0 20 -12 18 -51 -9 -47 -31 -80 -43 -106
-39 l-23 3 25 23 c36 33 155 195 171 232 17 40 38 57 63 49 11 -3 29 -2 39 4
24 13 36 3 19 -17 -10 -13 -9 -14 10 -4 28 15 41 -2 18 -25 -9 -9 -21 -26 -26
-37 -5 -12 -15 -29 -21 -40 -11 -15 -10 -19 0 -23 10 -4 10 -8 1 -19 -7 -8 -9
-17 -6 -21 9 -9 38 18 31 29 -3 5 4 20 17 34 16 17 26 21 35 13 9 -8 16 -5 24
10 6 12 22 24 35 27 14 3 25 10 25 14 0 5 3 15 6 24 8 22 -22 21 -34 -1 -9
-14 -11 -14 -21 5 -8 15 -8 22 -1 22 5 0 10 5 10 10 0 6 -10 8 -24 4 -14 -3
-34 1 -48 9 -12 8 -45 18 -71 22 -35 5 -47 10 -43 20 7 19 -48 45 -95 45 -27
0 -37 -4 -34 -13 4 -9 -13 -12 -68 -11 -41 0 -79 4 -86 8 -6 4 -17 3 -24 -2
-7 -6 -27 -12 -46 -14 -19 -2 -36 -9 -39 -15 -3 -10 14 -13 61 -13 35 0 66 3
70 6 3 3 33 7 66 8 33 1 63 5 67 9 13 13 24 7 24 -13 0 -11 7 -20 15 -20 8 0
15 9 15 20 0 28 25 25 50 -7 21 -26 21 -28 3 -32 -10 -2 -24 -8 -31 -14 -11
-8 -12 -5 -7 19 l6 29 -15 -25 c-10 -18 -11 -27 -3 -32 15 -9 -15 -42 -54 -58
-16 -7 -28 -15 -25 -17 2 -3 -11 -18 -30 -35 -42 -37 -47 -73 -9 -64 37 9 31
-1 -12 -20 -21 -10 -47 -25 -58 -35 -23 -20 -68 -29 -74 -14 -3 6 4 12 15 14
10 2 32 12 48 24 l28 20 -22 12 c-20 11 -21 13 -7 21 18 10 67 73 67 86 0 16
-17 7 -55 -28 -51 -46 -77 -61 -68 -38 5 14 2 16 -18 10 -13 -4 -30 -7 -36 -7
-7 0 -31 1 -53 2 -45 2 -56 19 -11 19 20 0 37 10 60 37 32 38 43 34 15 -5 -9
-13 -14 -26 -11 -29 10 -9 48 8 44 20 -2 7 4 28 15 47 10 20 14 36 8 38 -6 2
-39 -12 -74 -32 -61 -34 -99 -48 -66 -25 12 9 11 10 -5 6 -11 -3 -28 -8 -37
-12 -13 -5 -18 -2 -18 9 0 9 3 16 8 16 4 0 15 12 25 25 17 24 17 25 -5 15 -13
-6 -35 -15 -50 -21 -31 -12 -40 -43 -10 -32 31 11 7 -6 -31 -22 -23 -9 -37
-11 -37 -5 0 6 10 15 23 19 21 9 21 9 -8 16 -16 4 -38 9 -47 12 -10 2 -31 -4
-48 -13 -22 -14 -27 -21 -18 -31 7 -9 6 -14 -7 -19 -11 -5 -21 -1 -27 9 -5 10
-17 17 -26 17 -15 0 -15 2 -2 11 11 8 7 9 -17 5 -27 -4 -31 -3 -26 11 5 13 2
15 -15 11 -14 -4 -22 -2 -22 7 0 17 -23 25 -41 14 -8 -5 -29 -6 -47 -3 -31 6
-59 -2 -102 -27 -8 -5 -26 -14 -40 -19 -45 -18 -54 -26 -82 -74 -22 -36 -26
-51 -18 -70 5 -13 6 -33 3 -44 -2 -11 2 -26 10 -33 8 -7 12 -21 9 -31 -2 -10
0 -18 6 -18 5 0 15 -14 21 -32 12 -33 3 -47 -26 -48 -16 0 -17 -16 -1 -26 6
-4 17 1 24 11 20 27 26 14 12 -23 -8 -19 -18 -30 -25 -28 -7 3 -20 3 -28 0
-13 -5 -12 -10 5 -31 11 -14 20 -34 20 -43 0 -11 10 -20 25 -24 14 -4 25 -11
25 -17 0 -7 -9 -9 -22 -5 -13 3 -34 6 -48 6 -29 0 -55 45 -44 75 4 10 1 20 -7
25 -11 7 -9 15 9 39 12 17 22 43 21 58 -1 16 1 35 5 44 4 9 0 21 -9 29 -8 7
-15 23 -15 36 0 13 -5 24 -11 24 -17 0 1 111 24 145 33 48 70 85 86 85 8 0 22
6 30 14 16 14 106 45 246 85 39 11 92 35 120 53 64 43 205 118 220 118 7 0 26
7 41 15 16 8 37 15 46 15 9 0 20 5 23 10 3 5 14 10 24 10 10 0 30 11 45 25 15
14 36 25 47 25 10 0 19 4 19 9 0 5 16 15 35 22 19 7 35 18 35 25 0 18 75 53
99 47 13 -3 21 -1 21 7 0 8 10 9 30 5 26 -6 30 -4 30 14 0 23 7 26 29 12 19
-12 59 18 54 40 -5 16 32 38 44 26 8 -9 41 25 37 38 -6 14 23 28 37 19 5 -3
16 2 25 10 8 9 25 16 37 16 18 0 19 2 7 10 -8 5 -12 11 -10 13 15 14 157 77
172 77 10 0 18 6 18 14 0 22 19 30 35 16 13 -11 19 -7 17 11 -1 9 42 53 65 66
18 10 25 10 38 -3 16 -17 34 -10 61 26 10 12 17 10 47 -13 34 -26 35 -26 52
-7 10 11 15 23 11 27 -4 4 -11 2 -15 -6 -7 -11 -12 -11 -30 0 -11 8 -21 20
-21 27 0 7 4 10 10 7 5 -3 20 1 32 9 12 9 28 16 35 16 7 0 22 9 33 20 l20 20
-25 10 c-32 12 -38 12 -31 1 9 -13 -19 -32 -38 -25 -22 8 -20 21 4 34 14 7 19
17 15 29 -4 12 3 19 27 26 43 13 49 35 9 35 -16 0 -33 -4 -36 -10 -8 -13 -25
-13 -25 0 0 19 33 48 48 42 11 -4 14 -1 9 11 -9 23 15 67 41 73 12 4 22 12 22
20 0 8 10 14 23 14 24 1 67 32 67 49 0 6 6 11 13 11 22 0 67 24 67 37 0 6 9 9
20 6 16 -4 19 -2 14 11 -5 12 0 16 20 16 15 0 46 9 68 20 23 11 56 20 73 20
17 0 36 5 43 12 6 6 40 12 74 12 54 1 63 4 62 19 -1 12 6 17 28 17 32 0 108
35 108 50 0 5 10 10 23 12 23 3 52 -6 122 -36 48 -22 89 -18 186 19 109 42
201 110 339 251 69 70 154 153 190 183 36 30 126 114 200 187 74 73 153 146
175 162 22 16 61 51 86 78 88 94 189 184 241 214 79 45 168 38 168 -12 l0 -21
-23 21 c-13 13 -36 22 -54 22 -40 0 -159 -84 -197 -139 -16 -22 -33 -41 -37
-41 -17 0 -9 -19 11 -25 11 -4 18 -11 14 -16 -3 -5 -14 -7 -24 -4 -15 5 -24
-3 -39 -34 -12 -22 -25 -42 -31 -46 -5 -3 -10 -15 -10 -26 0 -31 49 -24 94 13
35 28 37 33 20 39 -17 7 -17 8 4 8 12 1 25 8 28 16 4 8 11 15 16 15 7 0 6 -5
-1 -13 -8 -11 -5 -19 13 -36 15 -14 22 -30 19 -42 -4 -13 0 -19 10 -19 9 0 18
13 22 31 4 18 10 28 14 23 7 -11 47 -30 79 -39 14 -4 21 -12 19 -20 -3 -7 -1
-17 5 -23 16 -16 -1 -74 -23 -79 -14 -4 -17 -11 -13 -27 3 -14 -1 -28 -10 -35
-9 -8 -16 -20 -16 -28 0 -8 -5 -11 -10 -8 -7 4 -9 -2 -5 -18 5 -17 2 -26 -9
-30 -20 -8 -21 -60 -2 -76 12 -10 17 -8 26 9 6 11 16 18 21 14 6 -3 3 10 -5
29 -17 41 -13 49 18 37 22 -8 23 -6 21 43 -1 29 0 55 2 60 2 4 17 -6 32 -22
20 -21 34 -28 49 -24 12 3 19 10 16 15 -3 5 -13 7 -21 4 -23 -9 -36 3 -22 20
10 12 8 16 -9 21 -30 7 -28 23 2 23 14 0 28 5 31 11 4 6 19 7 35 4 25 -6 28
-4 23 14 -7 26 -48 28 -61 4 -6 -10 -16 -14 -26 -10 -24 9 -12 23 29 37 32 11
38 9 66 -14 34 -29 51 -33 43 -11 -8 20 1 19 25 -1 11 -10 17 -23 14 -30 -3
-8 3 -17 13 -21 11 -4 28 -16 39 -26 20 -19 20 -19 -20 -14 -22 3 -33 3 -25 1
8 -3 26 -20 40 -37 17 -23 19 -28 5 -17 -17 14 -18 13 -12 -2 16 -43 19 -91 7
-113 -11 -20 -11 -27 0 -40 7 -8 16 -12 21 -9 6 3 8 -5 5 -18 -7 -36 -17 -58
-28 -58 -5 0 -7 -8 -4 -18 7 -22 -61 -252 -75 -252 -3 0 -19 13 -35 30 -16 16
-36 30 -44 30 -9 0 1 -14 23 -33 35 -32 48 -57 28 -57 -6 0 -13 5 -16 10 -8
13 -52 13 -60 0 -3 -5 0 -20 6 -32 8 -14 14 -18 17 -10 6 19 31 14 30 -5 0
-10 3 -26 7 -36 4 -11 3 -17 -5 -17 -6 0 -14 9 -17 20 -5 17 -7 18 -20 5 -9
-9 -24 -13 -39 -9 -40 10 -27 -10 19 -29 29 -12 38 -20 29 -26 -8 -4 -10 -15
-6 -26 7 -18 6 -18 -16 -2 -14 9 -28 17 -32 17 -17 0 -7 -43 15 -60 17 -14 19
-21 10 -30 -8 -9 -20 -9 -48 0 -39 13 -56 7 -37 -12 18 -18 16 -59 -3 -52 -8
4 -15 1 -15 -5 0 -6 -12 -8 -32 -5 -32 6 -32 6 -12 -10 30 -22 37 -53 13 -59
-11 -3 -19 -14 -19 -27 0 -19 4 -21 25 -16 46 12 100 -39 75 -69 -6 -7 -9 -18
-8 -25 2 -7 -3 -15 -10 -17 -7 -3 -10 1 -6 10 3 9 -8 22 -32 36 -20 12 -39 20
-41 17 -11 -11 7 -35 29 -38 22 -3 23 -7 23 -75 -1 -73 7 -87 33 -61 7 7 12
20 12 30 0 20 16 24 23 6 3 -10 8 -10 21 1 15 13 18 12 23 -7 6 -26 23 -19 23
9 0 12 5 19 13 16 8 -2 11 -20 9 -48 l-2 -44 23 28 c26 31 64 38 52 10 -16
-37 -16 -69 -2 -82 11 -9 17 -9 22 0 4 6 1 15 -6 20 -11 6 -11 11 -2 20 10 10
14 8 18 -7 4 -10 10 -26 15 -36 6 -11 5 -20 -4 -28 -11 -8 -15 -8 -19 2 -4 9
-6 7 -6 -4 -1 -10 8 -18 22 -20 17 -2 21 -8 19 -27 -2 -14 0 -21 6 -17 6 3 9
26 8 51 -3 31 1 49 13 59 62 58 59 56 86 42 23 -12 24 -15 10 -26 -11 -9 -14
-21 -9 -39 3 -14 7 -32 7 -39 0 -7 18 -32 40 -54 l40 -41 29 32 c19 21 28 40
25 52 -10 36 40 18 54 -20 9 -23 11 -24 20 -8 6 9 7 26 4 37 -5 15 -2 20 12
20 24 0 27 48 5 74 -16 18 -16 19 1 13 10 -4 24 -7 29 -7 6 0 8 -3 5 -7 -4 -3
0 -17 9 -31 16 -25 13 -54 -7 -50 -6 2 -16 -5 -22 -15 -10 -15 -8 -21 6 -32
22 -16 47 -10 47 12 0 8 16 21 35 28 44 19 62 50 38 64 -15 8 -16 12 -5 22 18
19 15 32 -8 26 -22 -6 -54 23 -32 30 6 3 12 12 12 20 0 12 3 13 14 4 18 -15
66 3 66 25 0 10 5 14 15 10 12 -4 14 0 9 18 -4 19 -2 24 13 23 13 -2 18 5 18
25 0 14 3 30 8 34 12 13 8 34 -7 34 -13 0 -13 4 -1 34 9 20 12 48 9 65 -6 27
-10 30 -31 25 -20 -5 -24 -3 -21 11 4 24 39 45 45 28 3 -7 10 -13 16 -13 8 0
8 3 -1 12 -6 6 -8 17 -3 27 12 22 2 81 -13 81 -7 0 -17 5 -24 12 -7 7 -40 13
-73 14 -58 3 -78 8 -67 19 2 3 34 8 71 11 62 6 67 4 88 -20 12 -14 30 -26 40
-26 18 0 29 -19 29 -51 0 -13 4 -18 11 -13 8 5 10 -1 6 -18 -4 -14 -1 -33 8
-44 8 -13 10 -26 5 -34 -5 -8 -4 -22 1 -33 6 -10 9 -28 7 -40 -1 -12 1 -28 5
-35 5 -7 2 -14 -7 -18 -11 -4 -14 -17 -12 -45 2 -21 0 -39 -5 -39 -5 0 -9 -8
-9 -19 0 -10 -11 -35 -25 -56 -14 -20 -29 -50 -32 -66 -3 -18 -17 -36 -39 -48
-19 -11 -34 -25 -34 -30 0 -5 -17 -20 -37 -32 -55 -33 -80 -56 -148 -133 -40
-47 -61 -57 -67 -31 -6 26 -65 -11 -72 -46 -5 -27 -26 -42 -26 -19 0 23 -29 7
-72 -39 -33 -35 -43 -52 -37 -62 8 -11 12 -10 24 6 26 35 37 46 42 41 7 -7
-66 -114 -89 -130 -9 -7 -22 -25 -30 -41 -7 -17 -19 -35 -26 -40 -7 -6 -15
-35 -17 -65 -5 -85 -15 -118 -36 -123 -13 -3 -19 -14 -19 -32 0 -15 -4 -24
-10 -20 -5 3 -10 17 -10 31 0 22 -2 23 -20 12 -26 -17 -33 -37 -18 -55 10 -12
9 -17 -5 -24 -9 -6 -17 -16 -17 -24 0 -7 -11 -27 -25 -43 -14 -17 -25 -33 -25
-36 0 -4 -17 -30 -39 -59 -44 -60 -112 -260 -94 -278 7 -7 7 -26 0 -60 -8 -43
-7 -52 9 -71 14 -15 16 -22 6 -25 -16 -6 -16 -33 1 -33 7 0 23 -18 37 -39 13
-22 34 -45 47 -52 13 -7 22 -18 19 -25 -5 -12 64 -64 84 -64 5 0 10 -13 10
-28 0 -26 -2 -28 -52 -30 -58 -2 -71 -9 -45 -23 9 -6 17 -16 17 -24 0 -7 9
-17 20 -20 15 -5 19 -12 15 -26 -5 -14 -2 -20 7 -18 40 5 45 0 86 -93 2 -5 -6
-8 -19 -8 l-22 0 21 -23 c29 -30 28 -37 -5 -37 -26 -1 -27 -2 -10 -15 18 -13
18 -14 -2 -24 -11 -6 -32 -11 -46 -11 -15 0 -33 -7 -41 -15 -9 -8 -25 -15 -37
-16 -17 0 -13 -5 18 -20 22 -10 47 -19 56 -19 9 0 26 -9 39 -20 13 -11 29 -20
37 -20 22 0 14 -15 -14 -26 -16 -6 -61 -10 -101 -9 -65 1 -71 0 -59 -14 24
-29 51 -90 44 -98 -5 -4 -16 -2 -25 5 -36 25 -74 43 -80 37 -3 -3 4 -8 15 -11
24 -7 43 -32 84 -111 l27 -53 -29 0 c-23 0 -27 -3 -22 -17 3 -10 13 -26 22
-36 15 -18 10 -28 -23 -40 -5 -2 -3 -13 4 -26 9 -18 9 -25 0 -31 -9 -5 -9 -9
-1 -14 16 -10 13 -36 -4 -36 -8 0 -15 -7 -15 -15 0 -8 -4 -15 -9 -15 -5 0 -7
-10 -3 -22 5 -22 5 -22 -21 -5 -25 16 -73 25 -52 9 6 -4 16 -15 23 -24 13 -16
11 -16 -17 -8 -36 10 -40 1 -11 -25 11 -10 20 -26 20 -36 0 -10 5 -21 10 -24
6 -3 10 -13 10 -21 0 -13 -9 -10 -46 10 -57 32 -57 32 -52 1 4 -17 1 -25 -8
-25 -20 0 -17 -17 4 -29 9 -6 12 -11 5 -11 -23 0 -65 -49 -66 -77 -1 -15 -6
-31 -12 -35 -6 -5 -5 -12 3 -20 16 -16 15 -28 -1 -28 -19 0 -16 -60 4 -91 12
-18 13 -28 6 -40 -8 -13 -6 -21 6 -34 23 -23 21 -28 -8 -21 -29 7 -32 0 -9
-25 22 -24 9 -40 -26 -33 -26 6 -28 4 -23 -17 3 -13 14 -36 25 -51 23 -33 23
-49 1 -41 -17 7 -17 7 5 -46 4 -10 -2 -9 -21 4 -26 17 -27 17 -27 -4 0 -11 15
-37 32 -57 l33 -37 -28 5 c-23 4 -27 3 -22 -11 11 -28 18 -81 10 -81 -4 0 -20
8 -36 17 -30 18 -51 11 -31 -9 7 -7 12 -16 12 -20 0 -14 -37 -8 -51 8 -14 17
-94 74 -104 74 -11 0 16 -40 28 -40 13 -1 53 -50 41 -50 -4 0 -17 8 -28 17
-19 17 -19 16 2 -17 l21 -35 2131 -3 2130 -2 0 3000 0 3000 -4500 0 -4500 0 0
-2625z m5424 1704 c20 -12 36 -27 36 -35 0 -8 5 -14 10 -14 6 0 10 -7 10 -15
0 -9 7 -18 15 -21 8 -4 12 -10 9 -15 -2 -5 6 -29 20 -54 14 -25 21 -45 15 -45
-6 0 -8 -9 -4 -20 6 -20 -19 -112 -38 -138 -11 -14 -11 -14 18 -30 19 -11 18
-11 -7 -12 -23 0 -28 -6 -37 -47 -6 -27 -13 -55 -16 -63 -18 -59 -35 -128 -35
-145 0 -11 -8 -34 -19 -50 -16 -28 -29 -71 -34 -117 -1 -10 -5 -18 -9 -18 -4
0 -8 -7 -8 -15 0 -8 -5 -15 -10 -15 -6 0 -8 12 -4 28 11 51 38 137 51 162 7
14 13 36 13 49 0 25 55 226 70 252 5 9 12 33 16 53 5 30 3 40 -12 50 -15 12
-16 16 -5 30 7 9 10 16 7 16 -4 0 -2 9 4 20 8 16 8 22 -3 26 -8 3 -12 14 -10
28 3 12 -2 28 -11 35 -8 7 -12 19 -9 27 3 9 -1 14 -12 14 -11 0 -15 5 -11 16
3 9 -5 30 -20 50 -31 40 -28 41 20 13z m217 -758 c58 -38 106 -88 93 -101 -5
-5 -31 -10 -58 -12 -43 -3 -50 -6 -58 -30 -6 -16 -14 -25 -19 -22 -15 9 -10
42 8 53 16 8 15 14 -15 54 -31 44 -39 67 -25 80 12 12 28 7 74 -22z m-2812
-956 c32 7 44 -8 16 -19 -16 -6 -22 -66 -7 -66 5 0 17 9 27 20 24 26 71 24 67
-2 -3 -17 1 -19 38 -22 9 -1 14 -10 13 -24 -2 -18 5 -26 32 -38 34 -14 35 -15
20 -38 -9 -14 -23 -27 -31 -30 -23 -9 -16 -26 11 -26 14 0 25 6 25 13 0 8 3 7
9 -3 14 -22 -26 -47 -50 -32 -22 14 -60 0 -96 -35 -12 -13 -29 -23 -38 -23 -8
0 -15 -7 -15 -15 0 -16 16 -21 22 -6 2 4 12 11 23 15 17 5 22 -1 32 -31 11
-37 8 -63 -8 -63 -5 0 -7 11 -3 24 4 18 1 27 -15 35 -16 9 -22 8 -31 -8 -13
-26 -13 -31 3 -31 7 0 13 -12 12 -27 0 -24 4 -28 26 -25 l26 2 -25 -50 c-13
-27 -28 -50 -32 -50 -11 0 -40 47 -40 65 0 19 -24 19 -40 0 -7 -8 -21 -15 -31
-15 -14 0 -19 7 -19 28 0 16 -5 54 -11 85 -10 50 -10 60 5 75 9 11 16 36 16
60 0 35 3 42 20 42 12 0 20 7 20 17 0 13 -3 14 -11 6 -6 -6 -17 -9 -24 -7 -7
3 -20 -9 -29 -28 -11 -20 -13 -34 -6 -36 17 -6 11 -29 -12 -44 -19 -13 -21
-18 -10 -30 9 -11 10 -23 2 -42 -13 -34 -18 -33 -36 9 -8 19 -19 35 -24 35 -6
0 -10 5 -10 11 0 6 9 9 20 6 20 -5 30 18 11 25 -12 4 5 98 19 112 7 7 10 5 10
-6 0 -8 7 -21 15 -28 13 -11 15 -8 15 16 0 16 -8 43 -19 60 -36 60 -35 70 9
93 50 26 50 26 50 2 0 -11 5 -23 11 -27 8 -5 10 7 5 42 -3 28 -2 43 3 35 6 -9
18 -11 40 -6z m-296 -442 c2 6 11 -3 21 -20 9 -18 18 -33 20 -33 20 0 36 17
36 37 0 36 23 15 40 -38 20 -61 51 -67 55 -12 3 51 5 56 13 49 4 -4 8 -12 8
-17 1 -5 2 -13 3 -18 0 -5 9 -12 19 -15 10 -3 18 -14 19 -25 1 -10 22 -40 46
-66 32 -33 43 -53 39 -67 -3 -14 -10 -18 -26 -14 -11 3 -29 6 -38 6 -12 0 -18
8 -18 25 0 27 -9 32 -28 13 -9 -9 -17 -6 -37 12 -21 20 -25 21 -31 7 -9 -23
-41 -16 -56 13 -7 14 -39 51 -70 82 -58 57 -79 100 -39 78 14 -7 21 -6 24 3z
m-119 -170 c3 -4 29 -6 56 -4 44 2 51 0 59 -21 5 -13 18 -31 29 -41 18 -16 20
-16 26 -2 3 9 10 13 16 10 6 -4 8 -10 5 -15 -3 -5 5 -16 17 -25 53 -37 99 -65
108 -65 5 0 24 -26 43 -57 31 -53 41 -93 25 -109 -9 -8 -48 33 -48 50 0 8 -5
18 -11 21 -6 4 -8 13 -5 20 4 13 -32 55 -48 55 -5 0 -22 11 -38 25 -30 25 -63
30 -63 10 -1 -24 -19 -35 -58 -36 -23 0 -51 -4 -61 -8 -15 -6 -10 -11 32 -29
28 -12 54 -27 57 -32 3 -6 17 -10 31 -10 27 0 31 -17 9 -46 -13 -17 -14 -18
-15 -1 0 10 -7 20 -15 23 -8 4 -12 10 -9 15 3 5 -1 9 -8 9 -7 1 -31 9 -53 20
-22 11 -46 19 -53 20 -7 0 -30 9 -52 20 -32 16 -44 18 -69 9 -18 -6 -43 -8
-59 -3 -15 4 -29 7 -32 6 -42 -6 -120 -8 -120 -2 0 11 60 55 121 88 30 16 59
40 66 53 17 33 99 70 117 52z m-1369 -160 c3 -13 3 -29 -1 -35 -5 -7 -2 -8 6
-3 8 5 18 1 26 -10 12 -17 15 -17 48 -1 42 20 52 20 36 1 -7 -8 -20 -15 -30
-15 -18 0 -58 -38 -51 -49 3 -3 -3 -7 -12 -9 -20 -4 -23 14 -4 21 6 2 9 7 6
11 -11 11 -38 -5 -32 -20 3 -9 -2 -14 -14 -14 -29 0 -35 11 -17 31 25 28 14
41 -20 24 -35 -18 -42 -19 -28 -2 13 16 4 57 -12 57 -6 0 -18 -4 -26 -9 -22
-15 -31 -2 -15 22 12 18 24 22 74 23 55 1 60 -1 66 -23z m1295 -103 c0 -5 -7
-10 -15 -10 -21 0 -19 -16 6 -33 l20 -15 -21 -15 c-19 -13 -20 -16 -5 -31 14
-14 14 -18 2 -30 -9 -9 -19 -11 -28 -5 -20 13 -29 11 -29 -6 0 -9 -9 -15 -25
-15 -14 0 -25 4 -25 10 0 5 -6 7 -13 4 -7 -2 -22 4 -32 16 -10 11 -24 20 -31
20 -18 0 -26 17 -19 40 5 17 10 18 26 9 17 -9 21 -7 26 10 6 24 55 41 61 23 2
-7 9 -12 17 -12 7 0 18 -6 25 -14 6 -8 18 -12 26 -9 21 8 17 23 -6 23 -23 0
-24 3 -8 30 13 21 48 28 48 10z m-1274 -62 c-28 -16 -18 -30 18 -26 26 3 36 0
39 -13 3 -12 -1 -15 -13 -12 -17 4 -37 -13 -28 -23 10 -10 68 19 69 34 0 10 3
12 5 5 3 -7 0 -22 -7 -34 -10 -19 -9 -21 6 -15 9 3 29 9 43 12 l27 7 -24 -27
c-24 -26 -24 -26 -3 -26 13 0 22 -6 22 -15 0 -18 1 -18 34 -5 28 10 34 2 14
-19 -11 -11 -9 -12 10 -6 18 5 22 2 22 -14 0 -21 14 -28 24 -13 3 5 30 5 60 2
49 -5 54 -4 43 10 -7 8 -20 21 -29 28 -31 23 -19 35 15 15 17 -10 57 -27 88
-38 54 -17 58 -18 93 -1 34 16 38 16 72 0 36 -17 37 -17 55 5 11 14 26 21 36
18 59 -16 73 -17 73 -3 0 7 -11 21 -25 30 -21 14 -35 46 -20 46 12 0 55 -24
55 -32 0 -4 5 -8 11 -8 8 0 8 5 -1 15 -9 11 -10 18 -1 28 6 8 9 16 6 19 -3 3
22 8 56 12 52 5 69 2 105 -16 55 -27 57 -42 4 -35 -47 6 -76 -15 -38 -28 l23
-8 -22 -4 c-12 -2 -22 -12 -22 -21 -3 -72 -17 -104 -28 -64 -7 30 -19 28 -31
-7 -12 -33 -67 -67 -76 -46 -5 14 -46 9 -46 -6 0 -5 7 -6 15 -3 8 4 15 1 15
-5 0 -7 -8 -14 -17 -17 -10 -3 -27 -10 -38 -14 -83 -35 -117 -43 -125 -31 -5
10 -13 10 -27 3 -40 -22 -108 -41 -111 -32 -2 5 -10 6 -18 3 -8 -3 -20 -1 -27
5 -6 6 -32 13 -57 16 -61 7 -105 20 -219 61 -46 17 -101 61 -101 82 0 7 -11
13 -25 13 -18 0 -25 5 -25 20 0 16 -7 20 -30 20 -22 0 -28 4 -24 15 7 18 31
20 37 3 3 -10 8 -10 21 1 23 19 17 55 -10 59 -17 2 -21 8 -16 24 3 14 1 19 -6
14 -14 -8 -52 10 -52 25 0 7 12 8 30 4 23 -5 30 -3 30 8 0 18 24 25 59 18 20
-3 21 -5 7 -13z m1448 -445 c4 -4 22 -6 40 -5 32 3 33 2 40 -40 l7 -43 19 23
c10 12 21 22 24 22 14 0 4 -31 -19 -59 -22 -26 -31 -29 -62 -25 -31 4 -41 0
-60 -23 -18 -22 -22 -24 -23 -10 0 9 5 26 12 37 10 15 9 22 -5 38 -17 19 -17
20 3 25 11 3 20 12 20 21 0 20 -14 21 -30 1 -17 -21 -30 -19 -30 5 0 28 45 51
64 33z m396 -43 c14 -11 30 -20 35 -20 23 -1 54 -40 61 -75 6 -35 5 -38 -12
-31 -10 4 -32 10 -48 13 -16 3 -37 14 -48 25 -10 10 -27 18 -38 18 -13 0 -22
10 -28 33 -10 37 -6 51 14 43 8 -3 14 -1 14 4 0 16 23 11 50 -10z m-671 -197
c-1 -10 1 -26 6 -36 5 -12 1 -25 -12 -40 -24 -26 -35 -53 -37 -86 -1 -32 -19
-37 -31 -9 -13 29 -35 35 -35 9 0 -12 -4 -21 -10 -21 -6 0 -10 34 -10 81 0 51
4 78 10 74 6 -3 10 -15 10 -25 0 -15 9 -9 41 25 43 46 72 58 68 28z m201 -15
c0 -7 5 -6 15 2 19 16 34 5 28 -20 -4 -16 -2 -19 11 -14 9 3 16 10 16 15 0 5
5 9 10 9 6 0 3 -16 -6 -37 -9 -21 -20 -53 -24 -71 -5 -19 -15 -41 -24 -51 -9
-10 -16 -24 -16 -32 0 -9 3 -10 8 -3 4 6 17 16 30 23 19 10 22 9 22 -6 1 -20
43 -73 60 -73 5 0 10 -10 10 -23 0 -13 7 -32 15 -43 14 -19 14 -18 15 4 0 12
3 22 6 22 16 0 64 -62 64 -82 0 -13 7 -33 15 -44 8 -10 15 -31 15 -45 0 -15 9
-38 20 -52 25 -31 25 -37 2 -37 -11 0 -26 14 -35 33 -18 32 -18 32 -12 3 4
-19 1 -34 -10 -46 -12 -13 -13 -20 -5 -25 7 -4 14 2 17 14 8 32 26 25 21 -8
-3 -20 1 -32 15 -40 34 -22 11 -23 -27 -2 -45 26 -49 8 -8 -40 19 -24 22 -31
10 -26 -10 3 -18 2 -18 -4 0 -15 30 -23 42 -11 8 8 8 16 -2 27 -7 8 -10 19 -6
22 15 15 130 -161 142 -215 4 -23 2 -21 -13 8 l-17 35 -4 -48 c-2 -38 2 -53
20 -77 33 -41 45 -44 40 -9 -2 16 -8 29 -13 29 -5 0 -9 7 -9 15 0 38 35 6 43
-40 3 -16 8 -41 12 -55 5 -19 4 -21 -4 -10 -9 12 -11 12 -16 -2 -6 -14 -10
-15 -25 -5 -24 14 -34 5 -22 -20 44 -88 54 -114 49 -120 -4 -3 -9 2 -13 11
-10 25 -34 19 -34 -9 0 -17 9 -29 30 -40 39 -20 39 -37 -1 -22 -21 8 -37 25
-50 54 -23 51 -35 60 -42 32 -4 -13 -10 -18 -18 -13 -9 5 -11 1 -7 -14 5 -18
-1 -16 -38 15 -23 20 -41 40 -38 44 6 11 -86 100 -97 93 -5 -3 -7 -9 -4 -14 3
-5 1 -11 -4 -14 -10 -6 -3 -95 9 -111 4 -5 11 -26 15 -45 6 -29 5 -33 -6 -23
-17 17 -26 16 -33 -3 -3 -8 -2 -13 3 -10 5 3 11 -4 15 -17 11 -43 6 -48 -19
-19 -14 17 -25 37 -25 46 0 19 -11 21 -28 4 -9 -9 -13 -7 -19 8 -4 10 -13 24
-21 30 -9 6 -12 16 -7 23 9 15 -42 71 -65 71 -20 0 -46 30 -43 50 2 8 -32 52
-76 98 -77 82 -79 83 -85 56 -11 -41 2 -84 25 -84 14 0 19 -7 19 -29 0 -17 6
-31 16 -35 8 -3 12 -10 9 -16 -3 -5 1 -10 9 -10 20 0 31 -20 16 -30 -14 -9 25
-68 91 -137 22 -24 38 -47 34 -52 -8 -14 48 -122 85 -162 29 -32 40 -57 20
-44 -14 8 -13 -8 1 -22 17 -17 1 -34 -27 -27 -15 4 -24 2 -24 -6 0 -6 -5 -8
-11 -4 -8 5 -8 9 1 14 9 6 7 11 -9 19 -16 9 -21 9 -21 0 0 -7 -8 -5 -20 6 -11
10 -17 21 -15 25 8 13 -6 40 -28 51 -18 10 -19 9 -14 -10 5 -19 3 -20 -10 -9
-9 7 -24 26 -34 42 -9 15 -45 57 -78 92 -34 34 -61 69 -61 77 0 8 -9 22 -20
32 -11 10 -20 26 -20 35 0 10 -7 23 -15 30 -20 17 -20 -5 0 -40 8 -14 14 -37
15 -52 0 -18 14 -42 39 -68 22 -23 34 -43 28 -47 -6 -3 -18 4 -29 16 -11 14
-24 21 -33 17 -9 -3 -14 -2 -11 2 7 11 -39 78 -59 85 -8 4 -15 15 -15 26 0 10
-7 21 -15 25 -8 3 -15 14 -15 23 0 10 -6 28 -14 39 -11 15 -36 114 -36 141 0
2 6 3 13 3 7 0 20 -12 29 -27 9 -16 28 -40 42 -55 14 -15 26 -33 26 -41 0 -8
11 -19 24 -25 13 -6 27 -20 31 -30 8 -28 55 -58 65 -42 5 8 15 2 32 -18 30
-36 91 -71 82 -47 -4 10 0 15 10 15 9 0 16 5 16 10 0 6 -4 10 -9 10 -5 0 -16
15 -25 34 -18 38 -64 81 -97 91 -31 10 -102 87 -88 96 8 5 8 8 0 13 -6 4 -11
2 -11 -3 0 -6 -4 -11 -9 -11 -5 0 -9 22 -8 50 0 27 -5 55 -11 63 -15 17 -23
77 -11 77 8 0 13 -23 10 -42 0 -5 5 -8 13 -8 8 0 20 -17 27 -37 7 -21 14 -33
16 -26 2 7 10 10 18 7 9 -4 12 2 11 19 0 14 -4 23 -8 20 -5 -2 -8 3 -8 12 0 9
-11 31 -25 49 -14 18 -25 39 -25 46 0 7 -8 10 -19 7 -15 -4 -20 2 -24 27 -3
17 -1 35 4 40 5 6 9 20 9 32 0 13 5 26 10 29 14 9 12 -31 -2 -55 -11 -17 -8
-24 22 -55 22 -22 34 -45 33 -58 -2 -14 0 -17 4 -7 17 40 30 39 48 -1 19 -42
58 -57 48 -19 -6 22 -3 23 21 14 9 -3 16 -17 16 -31 0 -36 18 -63 41 -63 11 0
29 -5 41 -11 11 -6 22 -8 25 -5 3 3 0 34 -8 68 -11 54 -20 69 -61 109 -26 26
-48 51 -48 57 0 5 -7 12 -15 16 -18 7 -20 37 -3 54 9 9 7 12 -12 12 -13 0 -21
3 -18 6 4 3 -3 27 -14 52 -12 26 -21 61 -20 78 2 46 -21 61 -42 30 -20 -31
-21 -63 -1 -82 8 -9 15 -30 15 -49 0 -24 7 -37 25 -49 14 -9 31 -32 39 -50 8
-19 23 -39 34 -45 19 -10 37 -51 23 -51 -23 0 -75 49 -85 80 -8 24 -17 35 -29
34 -10 -1 -24 11 -33 29 -19 36 -36 157 -25 172 4 5 11 19 14 30 7 20 7 20 -8
1 -23 -30 -30 -11 -12 34 12 32 13 40 2 40 -12 0 -45 -57 -45 -79 0 -6 -9 -11
-21 -11 -12 0 -34 -14 -50 -31 -26 -28 -29 -29 -29 -10 0 36 -28 23 -49 -23
-19 -44 -20 -65 -6 -137 8 -38 -10 -64 -25 -39 -5 9 -11 -2 -17 -31 -11 -51
-6 -81 9 -55 5 9 16 16 23 16 19 0 46 -62 31 -72 -7 -4 -6 -15 2 -32 8 -19 8
-26 1 -26 -7 0 -9 -11 -5 -30 3 -17 1 -30 -4 -30 -6 0 -10 -16 -10 -35 0 -26
-3 -33 -15 -29 -8 4 -15 17 -15 30 0 13 -4 24 -9 24 -5 0 -11 9 -14 19 -3 14
-1 18 9 14 18 -7 18 -7 -8 68 -27 81 -28 181 -5 436 1 12 5 25 10 29 4 4 7 14
7 23 0 9 11 30 25 46 l24 30 -2 -46 c-1 -28 -9 -53 -20 -63 -21 -22 -22 -65
-2 -73 9 -3 22 2 29 12 7 10 18 15 24 11 8 -4 10 -2 6 7 -3 9 3 16 14 19 15 4
23 20 32 64 8 40 24 73 48 104 20 25 38 47 39 49 2 2 6 1 9 -2 7 -7 -15 -69
-28 -77 -14 -10 -57 -103 -52 -112 9 -13 24 -9 24 7 0 8 6 15 14 15 21 0 56
54 59 88 1 22 9 32 30 40 31 12 34 6 11 -26 -19 -28 -11 -92 11 -92 8 0 15 5
15 10 0 6 5 10 11 10 6 0 8 -9 4 -22 -3 -13 -3 -18 2 -13 11 14 43 15 45 1 0
-6 2 -15 3 -21 2 -5 3 -19 4 -30 2 -20 2 -20 16 -1 8 11 15 28 15 37 0 10 9
20 19 24 11 3 21 16 23 27 5 35 28 34 28 -1 0 -17 5 -31 11 -31 5 0 3 -10 -5
-22 -32 -45 -13 -65 24 -26 11 12 21 20 24 17 22 -25 55 -92 50 -101 -5 -7 -3
-8 5 -4 15 9 31 50 37 90 2 16 8 32 13 35 5 3 7 19 4 35 -5 24 -9 27 -32 23
-21 -5 -29 0 -39 21 -15 31 -16 52 -2 52 6 0 10 -4 10 -10 0 -5 5 -10 11 -10
13 0 2 53 -12 58 -18 7 -10 50 11 55 14 3 20 14 20 32 l0 27 -37 -23 c-21 -12
-46 -30 -55 -41 -16 -18 -17 -18 -27 -1 -9 16 -10 16 -11 -4 0 -12 -5 -25 -11
-29 -6 -3 -8 -20 -5 -38 4 -25 0 -36 -20 -55 -13 -13 -27 -21 -30 -19 -9 9 8
38 22 38 8 0 14 9 14 20 0 21 -15 27 -25 10 -9 -15 -25 -12 -19 4 3 8 -2 29
-11 46 -12 23 -14 43 -9 73 l7 42 13 -45 12 -45 1 39 c1 22 7 47 15 55 20 24
29 71 13 71 -7 0 -18 -5 -25 -12 -6 -6 -15 -9 -19 -5 -10 10 8 24 40 32 17 5
27 3 27 -4 0 -17 19 -13 47 9 19 15 30 17 44 9 10 -5 19 -15 19 -21z m394 -2
c13 5 56 -27 56 -43 0 -17 36 -53 53 -53 9 0 19 -9 22 -20 8 -26 29 -26 22 0
-8 32 27 34 72 4 23 -15 41 -30 41 -33 0 -4 8 -16 18 -27 10 -10 28 -43 40
-72 13 -29 32 -68 43 -85 10 -18 31 -56 45 -84 24 -51 65 -93 88 -93 17 0 40
-31 68 -91 26 -55 74 -116 85 -105 3 3 -2 22 -12 41 -9 20 -15 39 -12 41 7 7
46 -35 63 -69 8 -15 25 -32 38 -37 15 -5 25 -20 29 -39 4 -18 13 -31 22 -31 8
0 15 -4 15 -10 0 -16 -12 -11 -55 20 -22 16 -51 35 -65 41 -14 6 -37 18 -52
26 -26 13 -28 13 -28 -5 0 -11 7 -22 15 -26 8 -3 15 -10 15 -17 0 -6 -7 -8
-15 -5 -8 3 -21 9 -29 12 -10 4 -12 -1 -9 -20 6 -28 -4 -31 -73 -27 -29 2 -31
0 -27 -23 6 -28 -11 -36 -21 -11 -3 8 -11 15 -19 15 -7 0 -24 11 -37 25 -29
31 -44 32 -35 3 8 -23 9 -97 2 -105 -3 -2 -22 5 -42 17 l-38 21 6 -20 c3 -12
1 -21 -4 -21 -5 0 -9 3 -9 8 0 4 -7 16 -16 27 -12 16 -16 17 -23 6 -7 -11 -11
-9 -20 8 -7 11 -18 21 -25 21 -7 0 -25 14 -39 31 -30 36 -40 26 -25 -25 9 -28
16 -36 29 -33 13 4 21 -4 29 -28 6 -18 22 -41 36 -49 13 -9 24 -21 24 -26 0
-18 -31 -11 -64 15 -18 14 -40 25 -49 25 -12 0 -17 8 -16 28 0 26 1 26 11 5 6
-12 17 -24 24 -27 26 -10 14 19 -27 64 -22 25 -50 62 -61 83 -12 20 -26 37
-31 37 -4 0 -14 6 -21 13 -8 6 -23 19 -35 27 -16 11 -20 22 -17 45 4 24 -1 38
-20 58 -14 15 -23 31 -20 36 3 5 1 34 -6 66 -9 46 -9 58 2 65 11 7 12 14 3 32
-7 13 -15 34 -19 48 -6 22 -5 23 10 11 9 -7 16 -18 16 -23 0 -14 41 -70 47
-64 2 2 -1 15 -8 28 -7 12 -14 30 -15 38 -2 8 -7 23 -13 35 -5 11 -15 41 -22
67 -12 42 -15 46 -28 33 -13 -13 -12 -18 7 -45 13 -16 18 -30 13 -30 -20 0
-49 65 -46 105 2 22 4 40 5 40 11 0 6 62 -7 81 -14 22 -14 24 1 24 10 0 13 6
10 15 -4 8 -1 15 5 15 6 0 11 -3 11 -7 0 -5 11 -21 25 -37 28 -32 43 -27 49
15 2 13 7 35 12 49 6 19 9 21 12 8 2 -9 9 -15 16 -12z m436 -14 c0 -5 7 -17
16 -28 8 -10 13 -13 9 -6 -11 21 2 13 56 -35 121 -111 193 -189 203 -221 3 -9
15 -23 27 -30 12 -8 18 -9 14 -3 -3 6 -2 11 2 11 17 0 193 -193 193 -212 0 -4
-21 8 -46 27 -26 20 -49 33 -52 30 -4 -3 -2 -9 4 -13 25 -18 52 -64 47 -82 -3
-11 -1 -20 5 -20 10 0 36 -60 29 -67 -11 -10 -67 -14 -67 -4 0 6 -22 32 -50
58 -27 26 -50 52 -50 60 0 15 -71 96 -78 89 -3 -3 1 -12 7 -20 7 -8 8 -17 4
-19 -5 -3 -18 8 -28 24 -11 16 -24 28 -29 26 -11 -4 -126 103 -126 117 0 5
-12 22 -27 38 -37 38 -21 47 21 12 70 -58 96 -76 106 -72 10 3 -66 83 -169
178 -30 28 -41 45 -37 57 6 13 12 10 40 -20 44 -48 53 -47 20 3 -15 22 -30 40
-35 40 -4 0 -17 13 -29 30 -18 25 -19 32 -8 44 14 17 28 20 28 8z m590 -658
c29 -14 60 -33 69 -41 9 -8 31 -26 50 -39 23 -16 29 -24 18 -24 -9 0 -17 -4
-17 -10 0 -5 4 -10 8 -10 5 0 17 -7 28 -15 18 -14 17 -14 -8 -4 -32 14 -61 -2
-51 -28 4 -11 2 -14 -8 -11 -8 3 -13 14 -11 26 3 22 -5 26 -41 23 -22 -3 -72
35 -55 42 8 2 -1 12 -21 24 -31 20 -32 21 -12 28 27 8 27 21 1 35 -11 6 -18
15 -15 21 8 12 6 13 65 -17z m-2564 -401 c-4 -16 -12 -32 -19 -38 -35 -29 -39
-43 -22 -76 10 -18 15 -46 13 -66 -3 -25 -1 -32 9 -29 7 3 13 0 14 -7 0 -9 2
-9 6 1 9 24 25 12 19 -15 -3 -16 -7 -61 -8 -100 -1 -40 -5 -73 -9 -73 -10 0
-19 39 -19 83 0 43 -24 107 -39 107 -14 0 -14 -45 -1 -70 5 -10 12 -35 15 -55
4 -33 3 -36 -12 -23 -9 7 -24 26 -33 41 l-17 28 -15 -31 c-14 -29 -16 -30 -32
-15 -9 9 -16 30 -16 46 0 20 -5 29 -16 29 -8 0 -13 4 -10 8 3 5 -4 19 -15 31
-15 16 -17 25 -10 39 8 13 11 14 11 2 0 -8 7 -24 15 -35 14 -18 15 -17 12 15
-5 38 12 102 25 94 4 -3 8 -17 8 -31 0 -34 21 -103 32 -103 4 0 8 19 8 43 1
55 34 151 54 155 9 2 16 8 16 13 0 28 17 59 31 59 7 0 9 -10 5 -27z m1214
-275 c0 -9 18 -35 41 -58 41 -40 59 -49 59 -29 0 5 5 7 12 3 9 -6 9 -9 0 -12
-15 -5 7 -42 26 -42 7 0 10 5 7 10 -3 6 -2 10 4 10 5 0 11 -6 14 -12 3 -10 9
-10 25 -1 16 10 23 9 33 -3 6 -8 9 -17 6 -21 -4 -3 -2 -12 4 -20 9 -10 8 -13
-4 -13 -9 0 -19 4 -22 10 -8 13 -55 13 -55 1 0 -5 5 -11 12 -13 6 -2 8 -10 4
-16 -5 -9 -13 -9 -26 -2 -34 18 -42 4 -14 -24 16 -17 11 -56 -8 -56 -20 0 -59
38 -47 46 6 4 16 -1 21 -10 13 -23 31 -10 18 14 -6 11 -7 37 -4 60 5 28 3 40
-5 40 -7 0 -23 11 -36 25 -14 13 -25 21 -25 18 0 -4 -11 4 -25 17 -13 12 -22
27 -19 32 4 6 -3 22 -14 37 -19 26 -19 27 -1 27 11 0 19 -7 19 -18z"/>
<path d="M2281 1266 c-9 -11 -11 -33 -6 -74 4 -33 2 -76 -4 -96 -9 -34 -8 -38
15 -48 13 -6 24 -15 24 -20 0 -15 21 -8 27 10 4 9 13 22 20 27 15 12 19 51 8
80 -8 20 3 12 65 -44 11 -11 15 -36 16 -95 0 -93 18 -144 51 -152 24 -6 31
-28 13 -39 -6 -4 -4 -17 5 -36 9 -16 20 -27 26 -23 7 4 5 12 -5 23 -18 19 -22
46 -6 36 17 -10 11 13 -17 68 -30 59 -41 100 -48 172 -2 28 -13 74 -24 102
-10 29 -17 63 -14 75 4 21 3 22 -10 6 -16 -20 -27 -14 -27 14 0 11 -4 16 -10
13 -5 -3 -10 -19 -10 -36 0 -19 -5 -29 -15 -29 -9 0 -15 9 -15 25 0 15 -7 28
-17 32 -10 4 -21 10 -24 15 -3 5 -11 2 -18 -6z"/>
<path d="M2865 1437 c-4 -15 -11 -24 -17 -21 -5 3 -7 11 -5 18 3 6 -6 12 -19
12 -29 2 -30 -14 -4 -61 16 -29 17 -35 5 -35 -17 0 -20 -16 -6 -25 5 -3 15
-22 21 -43 7 -20 27 -53 45 -72 17 -19 45 -56 61 -83 18 -28 34 -45 42 -42 8
3 18 5 23 5 5 0 9 12 9 27 0 21 3 24 12 15 21 -21 36 -14 30 16 l-5 27 34 -30
c19 -16 39 -36 46 -44 6 -7 17 -11 24 -9 9 3 8 8 -2 18 -45 48 -89 111 -89
129 0 36 -46 126 -74 144 -31 21 -34 7 -7 -37 30 -48 54 -127 43 -138 -7 -7
-19 4 -36 31 -15 22 -30 41 -35 41 -5 0 -19 28 -30 63 -12 34 -30 75 -40 91
l-20 30 -6 -27z"/>
<path d="M3890 4336 c-16 -7 -24 -17 -22 -28 5 -25 -9 -28 -120 -34 -123 -6
-135 -9 -119 -28 9 -10 9 -16 1 -21 -6 -4 -20 -27 -32 -53 -20 -42 -23 -44
-28 -23 l-5 24 -13 -28 c-10 -22 -17 -26 -37 -21 -18 5 -25 2 -25 -8 0 -8 -6
-21 -12 -28 -7 -8 -19 -24 -25 -36 -11 -19 -9 -25 13 -47 19 -19 24 -32 20
-49 -9 -35 14 -49 43 -25 13 10 18 19 12 19 -16 0 -14 27 5 55 12 19 14 29 5
38 -18 22 22 49 146 98 78 31 108 47 102 55 -18 22 2 44 38 44 30 0 35 3 30
19 -5 20 19 48 57 68 27 15 -3 23 -34 9z"/>
<path d="M3825 2980 c-3 -5 -15 -10 -25 -10 -10 0 -23 -6 -27 -13 -4 -8 -16
-16 -25 -20 -11 -4 -18 -17 -18 -32 0 -31 -21 -73 -48 -99 -12 -10 -24 -31
-27 -47 -8 -34 -25 -49 -25 -21 0 10 -3 22 -7 25 -9 10 -43 -23 -44 -42 0 -10
-2 -12 -6 -3 -2 6 -11 12 -19 12 -8 0 -14 7 -14 16 0 14 -3 14 -15 4 -12 -10
-15 -9 -15 8 0 28 -27 36 -41 11 -5 -11 -12 -47 -14 -79 -3 -48 0 -61 16 -76
10 -9 19 -30 19 -45 0 -15 4 -31 10 -34 6 -4 9 19 7 59 -1 36 1 64 4 63 4 -1
16 6 27 16 20 18 21 18 24 -10 2 -19 8 -28 21 -27 18 2 23 -11 8 -21 -5 -3 -7
-20 -4 -38 7 -44 -32 -114 -54 -96 -12 11 -13 8 -8 -14 6 -21 4 -27 -9 -27
-19 0 -20 -3 -1 -63 8 -27 14 -52 14 -55 -4 -28 3 -34 29 -27 15 4 34 8 42 9
8 2 16 12 18 24 2 14 8 19 18 15 12 -4 13 -1 4 22 -6 15 -8 31 -4 34 4 3 9 0
11 -7 3 -6 9 -10 14 -7 5 4 20 -5 33 -19 l25 -24 -6 31 c-9 46 14 24 52 -49
16 -31 49 -78 72 -103 42 -45 43 -45 43 -19 0 19 4 26 14 22 25 -10 26 25 2
84 -13 31 -27 65 -30 75 -6 20 -26 23 -26 5 -1 -15 -31 59 -34 83 -3 21 -24
76 -47 122 -20 41 -25 87 -10 87 5 0 14 -12 20 -27 14 -34 60 -87 68 -80 3 3
-2 16 -11 29 -9 12 -16 26 -16 31 0 17 32 -17 61 -63 27 -43 29 -44 29 -17 0
15 -7 39 -16 52 -9 14 -12 29 -8 37 5 7 7 22 5 32 -3 19 -2 19 25 2 22 -15 26
-16 21 -3 -3 8 3 26 14 38 11 13 17 29 13 38 -15 37 -16 51 -3 51 7 0 23 10
36 22 33 31 69 32 93 1 22 -28 26 -58 10 -68 -13 -8 -3 -25 16 -25 16 0 20 65
4 75 -17 11 -11 43 12 59 12 9 37 16 55 16 36 0 47 11 38 40 -9 27 -55 27 -62
1 -4 -17 -11 -19 -55 -14 -41 5 -52 3 -60 -10 -7 -13 -13 -14 -26 -6 -13 8
-27 7 -56 -5 -30 -13 -36 -19 -31 -36 4 -11 2 -20 -4 -20 -6 0 -11 -7 -11 -15
0 -8 -4 -15 -8 -15 -5 0 -19 -9 -32 -20 -21 -18 -25 -19 -33 -5 -4 8 -7 25 -5
37 2 15 -3 24 -15 26 -15 3 -18 0 -12 -18 6 -19 4 -21 -13 -16 -15 5 -24 1
-32 -14 -6 -11 -8 -24 -6 -29 3 -5 -1 -11 -9 -15 -8 -3 -15 -13 -15 -23 0 -10
-9 -24 -19 -30 -18 -11 -19 -9 -17 20 3 39 41 116 61 124 8 3 13 9 10 13 -8
14 7 70 19 70 6 0 19 9 29 20 14 16 21 18 36 10 30 -15 33 -12 15 15 -17 27
-29 31 -39 15z"/>
<path d="M4580 2951 c0 -3 9 -12 20 -19 12 -7 19 -20 18 -30 -2 -12 4 -17 26
-17 15 -1 34 -9 41 -18 15 -21 29 -22 45 -2 7 8 16 12 22 9 5 -3 25 2 44 11
19 9 43 13 53 10 24 -7 35 9 22 34 -13 23 -42 35 -51 21 -5 -8 -25 -8 -70 -1
-37 6 -68 7 -74 2 -6 -5 -30 -6 -53 -1 -24 4 -43 5 -43 1z"/>
<path d="M4402 2884 c-18 -15 -56 -38 -85 -53 -54 -27 -75 -61 -38 -61 11 0
24 7 29 17 6 10 16 14 26 10 9 -4 16 -2 16 3 0 6 8 10 18 10 23 0 52 30 52 53
0 9 5 17 11 17 6 0 9 -9 6 -19 -6 -25 1 -35 40 -55 38 -19 52 -21 35 -4 -16
16 -15 28 3 28 24 0 104 -44 105 -57 0 -6 13 -18 30 -26 29 -15 64 -13 87 5 7
6 34 7 63 3 54 -7 65 3 28 27 -37 24 -92 32 -145 22 -36 -7 -45 10 -20 35 10
11 8 11 -11 1 -20 -10 -27 -9 -45 8 -21 19 -131 62 -159 62 -7 0 -28 -12 -46
-26z"/>
<path d="M4319 2742 c-16 -2 -31 -12 -38 -28 -14 -31 -14 -34 -1 -34 6 0 10 7
10 15 0 8 5 15 10 15 6 0 8 -11 4 -25 -4 -15 -2 -25 5 -25 6 0 11 -6 11 -14 0
-8 9 -17 19 -21 23 -7 65 -71 66 -100 0 -17 8 -19 60 -20 60 -2 119 -21 110
-36 -3 -4 -1 -10 5 -14 5 -3 10 -1 10 4 0 20 25 11 58 -19 39 -35 38 -35 45
-11 3 12 -4 29 -15 41 l-20 22 24 26 c30 33 26 60 -10 68 -15 3 -42 10 -60 16
-18 5 -39 7 -47 4 -8 -3 -21 4 -30 17 -13 19 -18 20 -35 9 -26 -16 -40 -15
-40 2 0 7 -13 19 -30 26 -32 13 -40 30 -15 30 22 0 18 21 -5 27 -11 3 -20 9
-20 13 0 10 -37 16 -71 12z"/>
<path d="M4122 2553 c-12 -3 -20 -9 -16 -14 3 -6 0 -16 -6 -25 -10 -12 -16
-12 -28 -2 -13 11 -15 10 -9 -5 16 -41 18 -65 8 -71 -16 -10 -13 -36 4 -36 30
0 66 24 62 41 -3 9 -1 23 4 30 7 12 9 11 9 -1 0 -23 60 -82 77 -76 8 3 21 6
29 6 9 0 12 5 9 10 -3 6 -14 10 -25 10 -22 0 -35 30 -18 42 10 7 9 11 -4 22
-27 20 -22 28 12 21 32 -7 38 2 20 34 -7 14 -21 18 -57 18 -26 0 -58 -2 -71
-4z"/>
<path d="M3760 2261 c0 -5 16 -40 36 -77 19 -37 45 -92 56 -123 11 -31 27 -63
34 -72 17 -19 18 -29 4 -29 -6 0 -15 11 -19 23 -5 13 -23 39 -40 58 -27 30
-31 31 -31 12 0 -11 7 -26 16 -34 22 -18 41 -61 36 -83 -3 -15 0 -17 13 -12
30 11 100 -75 85 -104 -7 -12 0 -26 23 -53 36 -41 52 -47 44 -16 -4 16 -3 18
9 8 7 -6 11 -15 8 -20 -3 -5 -2 -14 2 -20 4 -8 9 -7 15 2 6 11 15 7 39 -16 17
-16 30 -23 30 -16 0 20 -39 79 -62 96 -17 11 -19 17 -10 28 14 16 6 28 -13 21
-16 -6 -28 25 -16 40 6 7 2 20 -12 36 -14 17 -18 19 -14 7 5 -12 3 -17 -5 -15
-6 2 -12 14 -13 26 -1 19 -34 56 -43 48 -1 -2 3 -17 9 -35 6 -18 9 -35 5 -38
-3 -4 -6 -1 -6 6 0 7 -4 9 -10 6 -9 -6 -15 16 -11 39 1 5 -10 33 -24 63 -14
29 -25 63 -25 74 0 12 -4 17 -11 13 -7 -4 -9 0 -5 14 5 13 -1 29 -17 48 -13
16 -32 43 -41 61 -16 33 -36 51 -36 34z"/>
<path d="M1546 384 c5 -20 4 -25 -6 -19 -9 6 -10 3 0 -14 6 -12 12 -37 14 -55
2 -19 13 -49 25 -69 11 -19 21 -43 21 -54 0 -24 18 -43 35 -37 7 3 25 -15 41
-40 27 -42 44 -57 44 -38 0 4 -12 39 -26 77 -14 39 -30 84 -35 100 -10 31 -40
88 -74 143 -25 40 -48 43 -39 6z"/>
<path d="M16 314 c-12 -8 -15 -38 -13 -160 l2 -149 62 -3 62 -3 -10 35 c-7 25
-6 42 1 57 11 19 10 20 -9 10 -33 -18 -33 -13 -4 26 24 31 25 36 8 29 -11 -5
-30 -8 -43 -7 -19 1 -22 -3 -18 -22 3 -12 3 -16 0 -9 -3 6 -12 12 -20 12 -11
0 -13 9 -8 43 9 52 31 88 50 80 8 -3 14 0 14 6 0 6 -4 11 -9 11 -6 0 -6 12 -1
29 7 26 6 28 -21 27 -16 -1 -35 -6 -43 -12z"/>
</g>
</svg>
